#N canvas 656 161 717 487 10;
#X text 365 31 t = current time = 0;
#X text 367 43 b = starting value = 0;
#X text 367 53 c = change needed in value = 1;
#N canvas 480 394 785 298 init 0;
#X obj 12 81 value \$0-c;
#X obj 12 9 loadbang;
#X obj 12 34 f \$2;
#X obj 145 7 loadbang;
#X obj 145 79 value \$0-d;
#X obj 145 32 f \$3;
#X obj 12 58 expr if(!$f1 \, 1 \, $f1);
#X obj 145 56 expr if(!$f1 \, 1 \, $f1);
#X obj -126 10 loadbang;
#X obj -126 35 f \$1;
#X obj -126 59 expr if(!$f1 \, 0 \, $f1);
#X obj -126 82 value \$0-b;
#X connect 1 0 2 0;
#X connect 2 0 6 0;
#X connect 3 0 5 0;
#X connect 5 0 7 0;
#X connect 6 0 0 0;
#X connect 7 0 4 0;
#X connect 8 0 9 0;
#X connect 9 0 10 0;
#X connect 10 0 11 0;
#X restore 278 19 pd init;
#X obj 226 148 value \$0-c;
#X obj 315 148 value \$0-d;
#X obj 137 148 value \$0-b;
#X obj 29 11 inlet;
#X obj 29 391 outlet;
#X obj 75 61 s \$0-help;
#X obj 29 62 s \$0-t;
#X obj 29 83 r \$0-t;
#N canvas 724 491 450 300 help 0;
#X msg 65 73 t = current time = default 0;
#X msg 68 99 b = arg1 = starting value = default 0;
#X msg 70 131 c = arg2 = change needed in value = default 1;
#X obj 15 14 r \$0-help;
#X obj 15 39 t b b b b b b;
#X msg 73 162 d = arg3 = expected easing duration = frames per sec
= default 1;
#X obj 29 269 print InOutExpo;
#X connect 0 0 6 0;
#X connect 1 0 6 0;
#X connect 2 0 6 0;
#X connect 3 0 4 0;
#X connect 4 2 5 0;
#X connect 4 3 2 0;
#X connect 4 4 1 0;
#X connect 4 5 0 0;
#X connect 5 0 6 0;
#X restore 278 37 pd help;
#X text 367 65 d = expected easing duration (frames per sec) = 1;
#X obj 136 60 s \$0-dump;
#N canvas 384 288 643 370 dump 0;
#X obj 97 81 value \$0-c;
#X obj 165 81 value \$0-d;
#X obj 30 81 value \$0-b;
#X obj 30 10 r \$0-dump;
#X obj 30 37 t b b b b b;
#X obj 30 141 pack f f f;
#X obj 30 167 print InOutExpo;
#X connect 0 0 5 1;
#X connect 1 0 5 2;
#X connect 2 0 5 0;
#X connect 3 0 4 0;
#X connect 4 0 2 0;
#X connect 4 1 0 0;
#X connect 4 2 1 0;
#X connect 5 0 6 0;
#X restore 278 56 pd dump;
#X obj 29 31 route float help dump list;
#X obj 196 60 s \$0-vars;
#N canvas 267 303 517 342 set-vars 0;
#X obj 95 96 value \$0-c;
#X obj 163 96 value \$0-d;
#X obj 28 96 value \$0-b;
#X obj 28 10 r \$0-vars;
#X obj 25 33 t b l;
#X obj 28 69 unpack f f f;
#X connect 3 0 4 0;
#X connect 4 1 5 0;
#X connect 5 0 2 0;
#X connect 5 1 0 0;
#X connect 5 2 1 0;
#X restore 278 75 pd set-vars;
#X obj 48 222 expr $f3*pow(2 \, 10*($f1/$f4-1))+$f2-$f3*0.001;
#X obj 29 150 t f f f;
#X obj 137 169 t f f;
#X obj 226 170 t f f;
#X obj 48 193 * 2;
#X obj 48 252 / 2;
#X obj 82 171 - 0.5;
#X obj 82 195 * 2;
#X obj 182 281 / 2;
#X obj 182 304 + 0.5;
#X obj 182 258 expr $f3*1.001*(-1*pow(2 \, -10*($f1/$f4))+1)+$f2;
#X text 366 16 easeInOutExpo;
#X obj 29 103 t f b b b b;
#X obj 516 194 expr (1*$f1)/2;
#X floatatom 516 220 5 0 0 0 - - -;
#X obj 516 244 s \$0-dd;
#X obj 315 170 t f f f===========================;
#X obj 109 86 r \$0-dd;
#X obj 80 294 r \$0-dd;
#X obj 29 350 expr if($f1<$f2 \, $f3 \, $f4);
#X connect 4 0 22 0;
#X connect 5 0 35 0;
#X connect 6 0 21 0;
#X connect 7 0 16 0;
#X connect 11 0 31 0;
#X connect 16 0 10 0;
#X connect 16 1 9 0;
#X connect 16 2 14 0;
#X connect 16 3 17 0;
#X connect 19 0 24 0;
#X connect 20 0 38 0;
#X connect 20 1 23 0;
#X connect 20 2 25 0;
#X connect 21 0 19 1;
#X connect 21 1 29 1;
#X connect 22 0 19 2;
#X connect 22 1 29 2;
#X connect 23 0 19 0;
#X connect 24 0 38 2;
#X connect 25 0 26 0;
#X connect 26 0 29 0;
#X connect 27 0 28 0;
#X connect 28 0 38 3;
#X connect 29 0 27 0;
#X connect 31 0 20 0;
#X connect 31 2 6 0;
#X connect 31 3 4 0;
#X connect 31 4 5 0;
#X connect 32 0 33 0;
#X connect 33 0 34 0;
#X connect 35 0 19 3;
#X connect 35 1 29 3;
#X connect 35 2 32 0;
#X connect 36 0 25 1;
#X connect 37 0 38 1;
#X connect 38 0 8 0;
