#N canvas 341 476 731 377 10;
#X text 425 21 t = current time = 0;
#X text 427 33 b = starting value = 0;
#X text 427 43 c = change needed in value = 1;
#N canvas 480 394 785 298 init 0;
#X obj 12 81 value \$0-c;
#X obj 12 9 loadbang;
#X obj 12 34 f \$2;
#X obj 145 7 loadbang;
#X obj 145 79 value \$0-d;
#X obj 145 32 f \$3;
#X obj 12 58 expr if(!$f1 \, 1 \, $f1);
#X obj 145 56 expr if(!$f1 \, 1 \, $f1);
#X obj -126 10 loadbang;
#X obj -126 35 f \$1;
#X obj -126 59 expr if(!$f1 \, 0 \, $f1);
#X obj -126 82 value \$0-b;
#X connect 1 0 2 0;
#X connect 2 0 6 0;
#X connect 3 0 5 0;
#X connect 5 0 7 0;
#X connect 6 0 0 0;
#X connect 7 0 4 0;
#X connect 8 0 9 0;
#X connect 9 0 10 0;
#X connect 10 0 11 0;
#X restore 338 9 pd init;
#X obj 98 151 value \$0-c;
#X obj 89 93 t f b f b b b b b;
#X obj 230 151 value \$0-d;
#X obj 296 151 value \$0-b;
#X obj 89 1 inlet;
#X obj 296 172 t f f;
#X obj 98 171 t f f f;
#X obj 135 51 s \$0-help;
#X obj 89 52 s \$0-t;
#N canvas 724 491 450 300 help 0;
#X msg 65 73 t = current time = default 0;
#X msg 68 99 b = arg1 = starting value = default 0;
#X msg 70 131 c = arg2 = change needed in value = default 1;
#X obj 15 14 r \$0-help;
#X obj 15 39 t b b b b b b;
#X obj 29 269 print OutElastic;
#X msg 73 162 d = arg3 = expected easing duration = frames per sec
= default 1;
#X connect 0 0 5 0;
#X connect 1 0 5 0;
#X connect 2 0 5 0;
#X connect 3 0 4 0;
#X connect 4 2 6 0;
#X connect 4 3 2 0;
#X connect 4 4 1 0;
#X connect 4 5 0 0;
#X connect 6 0 5 0;
#X restore 338 27 pd help;
#X text 427 55 d = expected easing duration (frames per sec) = 1;
#X obj 196 50 s \$0-dump;
#N canvas 384 288 643 370 dump 0;
#X obj 97 81 value \$0-c;
#X obj 165 81 value \$0-d;
#X obj 30 81 value \$0-b;
#X obj 30 10 r \$0-dump;
#X obj 21 167 print OutElastic;
#X obj 30 37 t b b b b b;
#X obj 20 141 pack f f f;
#X connect 0 0 6 1;
#X connect 1 0 6 2;
#X connect 2 0 6 0;
#X connect 3 0 5 0;
#X connect 5 0 2 0;
#X connect 5 1 0 0;
#X connect 5 2 1 0;
#X connect 6 0 4 0;
#X restore 338 46 pd dump;
#X obj 89 21 route float help dump list;
#X obj 256 50 s \$0-vars;
#N canvas 267 303 517 342 set-vars 0;
#X obj 95 96 value \$0-c;
#X obj 163 96 value \$0-d;
#X obj 28 96 value \$0-b;
#X obj 28 10 r \$0-vars;
#X obj 25 33 t b l;
#X obj 28 69 unpack f f f;
#X connect 3 0 4 0;
#X connect 4 1 5 0;
#X connect 5 0 2 0;
#X connect 5 1 0 0;
#X connect 5 2 1 0;
#X restore 338 65 pd set-vars;
#X obj 230 172 t f f f;
#X text 426 6 easeInOutQuart;
#X obj 15 6 inlet~;
#X obj 89 73 bang~;
#X obj 16 200 expr~ if($v1<$f2/2 \, $v1*2 \, abs((($v1-($f2/2))/($f2/2))-1)*$f2)
;
#X obj 16 275 outlet~;
#X obj 18 240 expr~ if($v1/($f4/2)<1 \, $f3/2*(pow(($v1/($f4/2)) \,
3))+$f2 \, ((-1*$f3)/2)*(pow(($v1/($f4/2))-2 \, 3)-2)+$f2);
#X connect 4 0 10 0;
#X connect 5 3 4 0;
#X connect 5 5 6 0;
#X connect 5 6 7 0;
#X connect 6 0 20 0;
#X connect 7 0 9 0;
#X connect 8 0 17 0;
#X connect 9 0 26 1;
#X connect 10 0 26 2;
#X connect 17 0 12 0;
#X connect 17 1 11 0;
#X connect 17 2 15 0;
#X connect 17 3 18 0;
#X connect 20 0 26 3;
#X connect 20 1 24 1;
#X connect 22 0 24 0;
#X connect 23 0 5 0;
#X connect 24 0 26 0;
#X connect 26 0 25 0;
