#N canvas 533 118 892 477 10;
#X text 535 21 t = current time = 0;
#X text 537 33 b = starting value = 0;
#X text 537 43 c = change needed in value = 1;
#X text 537 66 a = amplitude = 1;
#X text 538 75 p = = Period = 0.3;
#N canvas 480 394 785 298 init 0;
#X obj 12 81 value \$0-c;
#X obj 12 9 loadbang;
#X obj 12 34 f \$2;
#X obj 145 7 loadbang;
#X obj 145 79 value \$0-d;
#X obj 285 7 loadbang;
#X obj 285 159 value \$0-a;
#X obj 495 7 loadbang;
#X obj 495 79 value \$0-p;
#X obj 145 32 f \$3;
#X obj 285 33 f \$4;
#X obj 495 32 f \$5;
#X obj 12 58 expr if(!$f1 \, 1 \, $f1);
#X obj 145 56 expr if(!$f1 \, 1 \, $f1);
#X obj 495 56 expr if(!$f1 \, 0.3 \, $f1);
#X obj -126 10 loadbang;
#X obj -126 35 f \$1;
#X obj -126 59 expr if(!$f1 \, 0 \, $f1);
#X obj -126 82 value \$0-b;
#X obj 285 67 t f b;
#X obj 312 95 f \$2;
#X obj 285 117 expr if(!$f1 || $f1<abs($f2) \, if(!$f2 \, 1 \, $f2)
\, $f1);
#X connect 1 0 2 0;
#X connect 2 0 12 0;
#X connect 3 0 9 0;
#X connect 5 0 10 0;
#X connect 7 0 11 0;
#X connect 9 0 13 0;
#X connect 10 0 19 0;
#X connect 11 0 14 0;
#X connect 12 0 0 0;
#X connect 13 0 4 0;
#X connect 14 0 8 0;
#X connect 15 0 16 0;
#X connect 16 0 17 0;
#X connect 17 0 18 0;
#X connect 19 0 21 0;
#X connect 19 1 20 0;
#X connect 20 0 21 1;
#X connect 21 0 6 0;
#X restore 448 9 pd init;
#X obj 123 133 value \$0-p;
#X obj 190 133 value \$0-c;
#X obj 256 133 value \$0-a;
#X obj 109 103 t f b f b b b b b;
#X obj 322 133 value \$0-d;
#X obj 388 133 value \$0-b;
#X obj 388 154 t f f;
#X obj 256 154 t f f;
#X obj 190 153 t f f f;
#X obj 155 51 s \$0-help;
#X obj 109 52 s \$0-t;
#X obj 109 73 r \$0-t;
#N canvas 724 491 450 300 help 0;
#X msg 65 73 t = current time = default 0;
#X msg 68 99 b = arg1 = starting value = default 0;
#X msg 70 131 c = arg2 = change needed in value = default 1;
#X msg 77 203 a = arg4 = amplitude = default 1;
#X msg 80 242 p = arg5 = period = default 0.3;
#X obj 15 14 r \$0-help;
#X obj 15 39 t b b b b b b;
#X obj 29 269 print OutElastic;
#X msg 73 162 d = arg3 = expected easing duration = frames per sec
= default 1;
#X connect 0 0 7 0;
#X connect 1 0 7 0;
#X connect 2 0 7 0;
#X connect 3 0 7 0;
#X connect 4 0 7 0;
#X connect 5 0 6 0;
#X connect 6 0 4 0;
#X connect 6 1 3 0;
#X connect 6 2 8 0;
#X connect 6 3 2 0;
#X connect 6 4 1 0;
#X connect 6 5 0 0;
#X connect 8 0 7 0;
#X restore 448 27 pd help;
#X text 537 55 d = expected easing duration (frames per sec) = 1;
#X obj 216 50 s \$0-dump;
#N canvas 384 288 643 370 dump 0;
#X obj 97 81 value \$0-c;
#X obj 165 81 value \$0-d;
#X obj 234 81 value \$0-a;
#X obj 302 81 value \$0-p;
#X obj 30 81 value \$0-b;
#X obj 30 10 r \$0-dump;
#X obj 21 167 print OutElastic;
#X obj 30 37 t b b b b b;
#X obj 20 141 pack f f f f f;
#X connect 0 0 8 1;
#X connect 1 0 8 2;
#X connect 2 0 8 3;
#X connect 3 0 8 4;
#X connect 4 0 8 0;
#X connect 5 0 7 0;
#X connect 7 0 4 0;
#X connect 7 1 0 0;
#X connect 7 2 1 0;
#X connect 7 3 2 0;
#X connect 7 4 3 0;
#X connect 8 0 6 0;
#X restore 448 46 pd dump;
#X obj 109 21 route float help dump list;
#X obj 276 50 s \$0-vars;
#N canvas 267 303 804 419 set-vars 0;
#X obj 95 96 value \$0-c;
#X obj 163 96 value \$0-d;
#X obj 232 96 value \$0-a;
#X obj 300 96 value \$0-p;
#X obj 28 96 value \$0-b;
#X obj 28 10 r \$0-vars;
#X obj 28 69 unpack f f f f f;
#X obj 25 33 t b l;
#X obj 177 306 value \$0-a;
#X obj 177 214 t f b;
#X obj 177 264 expr if(!$f1 || $f1<abs($f2) \, if(!$f2 \, 1 \, $f2)
\, $f1);
#X obj 177 180 value \$0-a;
#X obj 204 242 value \$0-c;
#X connect 5 0 7 0;
#X connect 6 0 4 0;
#X connect 6 1 0 0;
#X connect 6 2 1 0;
#X connect 6 3 2 0;
#X connect 6 4 3 0;
#X connect 7 0 11 0;
#X connect 7 1 6 0;
#X connect 9 0 10 0;
#X connect 9 1 12 0;
#X connect 10 0 8 0;
#X connect 11 0 9 0;
#X connect 12 0 10 1;
#X restore 448 65 pd set-vars;
#X obj 322 154 t f f f;
#X obj 576 296 expr if($f2==1 \, $f3+$f4 \, $f1);
#X obj 649 262 t f f;
#X text 536 6 easeInOutElastic;
#X obj 19 41 inlet~;
#X obj 19 235 /~;
#X obj 19 275 expr~ if($v1<0.5 \, $v1*2 \, abs((($v1-0.5)/0.5)-1))
;
#X obj 386 31 inlet~;
#X obj 78 193 expr~ if(!$v1 \, $v2 \, $v1);
#X obj 123 156 sig~;
#X obj 79 231 expr~ $v1/(2*3.14159265)*asin($f2/$f3);
#X obj 19 406 outlet~;
#X obj 20 303 expr~ if($v1<0.5 \, -0.5*($f4*pow(2 \, 10*($v1-0.5))*sin((($v1-0.5)*$f5-$v2)*(3.14159265*2)/$v3))+$f7
\, $f4*pow(2 \, -10*($v1-0.5))*sin((($v1-0.5)*$f5-$v2)*(3.14159265*2)/$v3)*0.5+$f7
+$f6);
#X obj 157 76 bang~;
#X connect 6 0 34 0;
#X connect 7 0 14 0;
#X connect 8 0 13 0;
#X connect 9 1 6 0;
#X connect 9 3 7 0;
#X connect 9 4 8 0;
#X connect 9 5 10 0;
#X connect 9 6 11 0;
#X connect 10 0 25 0;
#X connect 11 0 12 0;
#X connect 12 1 37 6;
#X connect 13 0 37 3;
#X connect 13 1 35 2;
#X connect 14 1 35 1;
#X connect 14 2 37 5;
#X connect 22 0 16 0;
#X connect 22 1 15 0;
#X connect 22 2 20 0;
#X connect 22 3 23 0;
#X connect 25 0 37 4;
#X connect 25 1 30 1;
#X connect 27 1 26 1;
#X connect 29 0 30 0;
#X connect 30 0 31 0;
#X connect 31 0 37 0;
#X connect 32 0 33 0;
#X connect 33 0 35 0;
#X connect 33 0 37 2;
#X connect 34 0 33 1;
#X connect 35 0 37 1;
#X connect 37 0 36 0;
#X connect 38 0 9 0;
